<svg width="100" height="100" viewBox="0 0 100 100" fill="none" xmlns="http://www.w3.org/2000/svg" className="animate-spin">
<path d="M100 50C100 40.1109 97.0676 30.4439 91.5735 22.2215C86.0794 13.999 78.2705 7.5904 69.1342 3.80602C59.9979 0.0216417 49.9445 -0.968525 40.2455 0.960736C30.5464 2.89 21.6373 7.65204 14.6447 14.6447C7.65204 21.6373 2.89 30.5464 0.960736 40.2455C-0.968525 49.9445 0.0216418 59.9979 3.80602 69.1342C7.59041 78.2705 13.999 86.0794 22.2215 91.5735C30.4439 97.0676 40.1109 100 50 100L50 90C42.0887 90 34.3552 87.654 27.7772 83.2588C21.1992 78.8635 16.0723 72.6164 13.0448 65.3073C10.0173 57.9983 9.22518 49.9556 10.7686 42.1964C12.312 34.4371 16.1216 27.3098 21.7157 21.7157C27.3098 16.1216 34.4371 12.312 42.1964 10.7686C49.9556 9.22518 57.9983 10.0173 65.3073 13.0448C72.6164 16.0723 78.8635 21.1992 83.2588 27.7772C87.654 34.3552 90 42.0887 90 50H100Z" fill="#F0F2F5"/>
<circle cx="95" cy="50" r="5" fill="#F0F2F5"/>
<circle cx="50" cy="95" r="5" fill="#F0F2F5"/>
</svg>
