<svg width="33" height="53" viewBox="0 0 33 53" fill="none" xmlns="http://www.w3.org/2000/svg">
<path d="M13.016 52.568C9.98667 52.568 7.53333 51.8 5.656 50.264C3.82133 48.7707 2.47733 46.8293 1.624 44.44C0.813333 42.0507 0.408 39.5547 0.408 36.952C0.408 33.5813 0.92 30.1893 1.944 26.776C2.968 23.3627 4.35467 20.12 6.104 17.048C7.896 13.9333 9.92267 11.1813 12.184 8.792C14.4453 6.36 16.8133 4.46133 19.288 3.096C21.8053 1.688 24.28 0.983997 26.712 0.983997C28.4613 0.983997 29.8693 1.41066 30.936 2.264C32.0453 3.07467 32.6 4.48267 32.6 6.488C32.6 7.72533 32.3867 9.13333 31.96 10.712C31.5333 12.248 30.9573 13.7413 30.232 15.192C29.5067 16.6 28.696 17.7733 27.8 18.712C26.9467 19.6507 26.072 20.12 25.176 20.12C24.8347 20.12 24.472 20.0133 24.088 19.8C23.7467 19.5867 23.448 19.2027 23.192 18.648C23.832 17.9227 24.536 17.0267 25.304 15.96C26.1147 14.8507 26.8827 13.6987 27.608 12.504C28.3333 11.2667 28.9093 10.072 29.336 8.92C29.8053 7.72533 30.04 6.68 30.04 5.784C30.04 4.93066 29.784 4.248 29.272 3.736C28.8027 3.18133 28.0133 2.904 26.904 2.904C25.0693 2.904 23.1493 3.65067 21.144 5.144C19.1813 6.63733 17.2613 8.64267 15.384 11.16C13.5493 13.6347 11.8853 16.408 10.392 19.48C8.89867 22.552 7.704 25.688 6.808 28.888C5.95467 32.088 5.528 35.1387 5.528 38.04C5.528 40.1307 5.82667 42.136 6.424 44.056C7.02133 45.9333 7.98133 47.448 9.304 48.6C10.6693 49.7947 12.4187 50.392 14.552 50.392C16.8133 50.392 19.0533 49.752 21.272 48.472C23.5333 47.192 25.6027 45.5067 27.48 43.416C29.3573 41.3253 30.8507 39.064 31.96 36.632L32.856 37.272C31.448 40.0453 29.7413 42.6053 27.736 44.952C25.7307 47.256 23.4907 49.0907 21.016 50.456C18.5413 51.864 15.8747 52.568 13.016 52.568Z" fill="white"/>
</svg>
